<svg width="63" height="62" viewBox="0 0 63 62" fill="none" xmlns="http://www.w3.org/2000/svg">
<path fill-rule="evenodd" clip-rule="evenodd" d="M31.3428 0C14.011 0 0 14.1143 0 31.5756C0 45.5334 8.97735 57.3484 21.4313 61.5301C22.9884 61.8444 23.5587 60.8507 23.5587 60.0147C23.5587 59.2827 23.5074 56.7736 23.5074 54.1592C14.7886 56.0415 12.973 50.3952 12.973 50.3952C11.5718 46.7357 9.49573 45.7952 9.49573 45.7952C6.64207 43.8609 9.7036 43.8609 9.7036 43.8609C12.8691 44.07 14.5301 47.102 14.5301 47.102C17.3318 51.9112 21.8464 50.5523 23.6627 49.7158C23.9219 47.6769 24.7527 46.2654 25.6348 45.4815C18.681 44.7494 11.3646 42.0312 11.3646 29.9025C11.3646 26.4522 12.6092 23.6293 14.5814 21.4339C14.2702 20.6499 13.1802 17.4081 14.8932 13.0692C14.8932 13.0692 17.5396 12.2326 23.5068 16.3104C26.0615 15.6192 28.6962 15.2676 31.3428 15.2646C33.9892 15.2646 36.687 15.631 39.1782 16.3104C45.146 12.2326 47.7924 13.0692 47.7924 13.0692C49.5054 17.4081 48.4147 20.6499 48.1035 21.4339C50.1277 23.6293 51.321 26.4522 51.321 29.9025C51.321 42.0312 44.0046 44.6968 36.9988 45.4815C38.1408 46.4746 39.1262 48.3563 39.1262 51.3363C39.1262 55.5706 39.0749 58.969 39.0749 60.0141C39.0749 60.8507 39.6459 61.8444 41.2023 61.5307C53.6562 57.3477 62.6336 45.5334 62.6336 31.5756C62.6849 14.1143 48.6226 0 31.3428 0Z" fill="white"/>
</svg>
