<svg width="75" height="75" viewBox="0 0 75 75" fill="none" xmlns="http://www.w3.org/2000/svg">
<path fill-rule="evenodd" clip-rule="evenodd" d="M9.68813 12.1793C12.7646 8.87866 17.1459 7.03125 22.3193 7.03125H48.6778C53.8631 7.03125 58.2462 8.87762 61.3216 12.1802C64.3791 15.4638 65.9688 19.9965 65.9688 25.0824V49.9175C65.9688 55.0034 64.3791 59.5363 61.3209 62.82C58.2453 66.1225 53.8613 67.9688 48.6747 67.9688H22.3193C17.1337 67.9688 12.7512 66.1222 9.67678 62.8197C6.62006 59.5359 5.03125 55.0031 5.03125 49.9175V25.0824C5.03125 19.9939 6.62866 15.4616 9.68813 12.1793ZM13.117 15.3754C11.0008 17.6458 9.71875 20.9672 9.71875 25.0824V49.9175C9.71875 54.0356 10.9957 57.3566 13.1078 59.6256C15.2023 61.8759 18.2919 63.2812 22.3193 63.2812H48.6747C52.7038 63.2812 55.795 61.8756 57.8906 59.6253C60.0038 57.3562 61.2812 54.0353 61.2812 49.9175V25.0824C61.2812 20.9646 60.0037 17.6437 57.8909 15.3745C55.7956 13.1242 52.705 11.7188 48.6778 11.7188H22.3193C18.3071 11.7188 15.2163 13.1232 13.117 15.3754Z" fill="white"/>
<path fill-rule="evenodd" clip-rule="evenodd" d="M22.6338 32.0069C23.9282 32.0069 24.9775 33.0563 24.9775 34.3506V49.3766C24.9775 50.671 23.9282 51.7203 22.6338 51.7203C21.3394 51.7203 20.29 50.671 20.29 49.3766V34.3506C20.29 33.0563 21.3394 32.0069 22.6338 32.0069Z" fill="white"/>
<path fill-rule="evenodd" clip-rule="evenodd" d="M40.7922 33.2762C37.7178 33.2762 35.2222 35.7719 35.2222 38.8462V49.3781C35.2222 50.6725 34.1728 51.7219 32.8784 51.7219C31.584 51.7219 30.5347 50.6725 30.5347 49.3781V38.8462C30.5347 33.1831 35.129 28.5889 40.7922 28.5889C46.4597 28.5889 51.0497 33.1837 51.0497 38.8462V49.3781C51.0497 50.6725 50.0006 51.7219 48.7059 51.7219C47.4115 51.7219 46.3622 50.6725 46.3622 49.3781V38.8462C46.3622 35.7712 43.8694 33.2762 40.7922 33.2762Z" fill="white"/>
<path fill-rule="evenodd" clip-rule="evenodd" d="M19.9513 25.9627C19.9513 24.4812 21.1521 23.2788 22.6351 23.2788C24.1163 23.2788 25.3192 24.4793 25.3192 25.9627C25.3192 27.4461 24.1163 28.6467 22.6351 28.6467C21.1521 28.6467 19.9513 27.4442 19.9513 25.9627Z" fill="white"/>
</svg>
