<svg width="62" height="62" viewBox="0 0 62 62" fill="none" xmlns="http://www.w3.org/2000/svg">
<g clip-path="url(#clip0_59_7)">
<path d="M33.4507 30.5378C32.6793 30.7953 31.8565 30.9384 30.9999 30.9384C30.1433 30.9384 29.3203 30.7953 28.549 30.5378C22.9457 31.458 20.0132 35.5762 20.0132 40.5737H30.9999H41.9865C41.9865 35.5762 39.0545 31.458 33.4507 30.5378Z" fill="white" stroke="white" stroke-width="0.390625"/>
<path d="M31 29.1579C34.3216 29.1579 37.0132 26.4648 37.0132 23.1437V21.4378C37.0132 18.1167 34.3216 15.4244 31 15.4244C27.6784 15.4244 24.9867 18.1167 24.9867 21.4378V23.1437C24.9867 26.4648 27.6784 29.1579 31 29.1579Z" fill="white" stroke="white" stroke-width="0.390625"/>
<path d="M45.8218 0H16.1759C10.4423 0 5.77612 4.6672 5.77612 10.4018V51.6003C5.77612 57.335 10.4423 62 16.1759 62H41.0843H42.6797L43.808 60.8737L55.0975 49.5843L56.2238 48.4569V46.8616V10.4018C56.2238 4.6672 51.5575 0 45.8218 0ZM52.3726 46.8615H46.5423C43.5293 46.8615 41.0841 49.3055 41.0841 52.3195V58.1489H16.1759C12.5593 58.1489 9.62739 55.2158 9.62739 51.6003V10.4018C9.62739 6.78428 12.5593 3.85114 16.1759 3.85114H45.8218C49.4396 3.85114 52.3725 6.78428 52.3725 10.4018V46.8615H52.3726Z" fill="white" stroke="white" stroke-width="0.390625"/>
</g>
<defs>
<clipPath id="clip0_59_7">
<rect width="62" height="62" fill="white"/>
</clipPath>
</defs>
</svg>
